<svg data-name="Layer 1" xmlns="http://www.w3.org/2000/svg" viewBox="0 0 110.5 108.22"><defs><mask id="a" x="-50.75" y="-22.55" width="161.25" height="132" maskUnits="userSpaceOnUse"><circle cx="15.25" cy="43.45" r="66" fill="#fff" data-name="mask0"/></mask></defs><path d="M36.44 6.11a32 32 0 0137.62 0L97.31 23a32 32 0 0111.62 35.78l-8.88 27.33a32 32 0 01-30.43 22.11H40.88a32 32 0 01-30.43-22.11L1.57 58.78A32 32 0 0113.19 23z" fill="#0092fc"/><g mask="url(#a)"><path d="M36.44 6.11a32 32 0 0137.62 0L97.31 23a32 32 0 0111.62 35.78l-8.88 27.33a32 32 0 01-30.43 22.11H40.88a32 32 0 01-30.43-22.11L1.57 58.78A32 32 0 0113.19 23z" fill="#ff910f"/></g><circle cx="29.25" cy="38.45" r="12" fill="#fff"/></svg>